# xmcd CD database file
#
# Track frame offsets:
#	187
#	18160
#	40120
#	58072
#
# Disc length: 1065 seconds
#
# Revision: 0
# Processed by: cddbd v1.5.1PL0 Copyright (c) Steve Scherf et al.
# Submitted via: CDex 1.51
#
DISCID=28042704
DTITLE=石田彰 - KIGHT OF MIDNIGHT
DYEAR=1995
DGENRE=Anime
TTITLE0=KIGHT OF MIDNIGHT
TTITLE1=マスカレード
TTITLE2=KIGHT OF MIDNIGHT（オリジナル・カラオケ）
TTITLE3=マスカレード（オリジナル・カラオケ）
EXTD=YEAR: 1995
EXTT0=
EXTT1=
EXTT2=
EXTT3=
PLAYORDER=
